HIERARCHY
ROOT Hips
{
	OFFSET 0.000000 0.000000 0.000000
	CHANNELS 6 Xposition Yposition Zposition Xrotation Yrotation Zrotation
	JOINT LeftUpLeg_virtual
	{
		OFFSET 0.000000 0.000000 0.000000
		CHANNELS 3 Xrotation Yrotation Zrotation
		JOINT LeftUpLeg
		{
			OFFSET 13.026900 -6.336304 -1.092800
			CHANNELS 3 Xrotation Yrotation Zrotation
			JOINT LeftLeg
			{
				OFFSET 0.524474 -46.096886 9.782700
				CHANNELS 3 Xrotation Yrotation Zrotation
				JOINT LeftFoot
				{
					OFFSET -0.524474 -53.427422 -12.948200
					CHANNELS 3 Xrotation Yrotation Zrotation
					JOINT LeftToeBase
					{
						OFFSET 0.192200 -14.009700 16.364100
						CHANNELS 3 Xrotation Yrotation Zrotation
						JOINT LeftToe_End
						{
							OFFSET -1.784700 -0.561700 9.474800
							CHANNELS 3 Xrotation Yrotation Zrotation
							End Site
							{
								OFFSET 0 0 0
							}
						}
					}
				}
			}
		}
	}
	JOINT RightUpLeg_virtual
	{
		OFFSET 0.000000 0.000000 0.000000
		CHANNELS 3 Xrotation Yrotation Zrotation
		JOINT RightUpLeg
		{
			OFFSET -12.883000 -6.336304 -1.092800
			CHANNELS 3 Xrotation Yrotation Zrotation
			JOINT RightLeg
			{
				OFFSET -0.524587 -46.096825 9.782800
				CHANNELS 3 Xrotation Yrotation Zrotation
				JOINT RightFoot
				{
					OFFSET 0.524587 -53.427383 -12.948300
					CHANNELS 3 Xrotation Yrotation Zrotation
					JOINT RightToeBase
					{
						OFFSET -0.192200 -14.009700 16.364100
						CHANNELS 3 Xrotation Yrotation Zrotation
						JOINT RightToe_End
						{
							OFFSET 1.784700 -0.561700 9.474800
							CHANNELS 3 Xrotation Yrotation Zrotation
							End Site
							{
								OFFSET 0 0 0
							}
						}
					}
				}
			}
		}
	}
	JOINT Spine_virtual
	{
		OFFSET 0.000000 0.000000 0.000000
		CHANNELS 3 Xrotation Yrotation Zrotation
		JOINT Spine
		{
			OFFSET 0.072000 7.257294 -0.789700
			CHANNELS 3 Xrotation Yrotation Zrotation
			JOINT Spine1
			{
				OFFSET 0.000000 12.508769 -0.658067
				CHANNELS 3 Xrotation Yrotation Zrotation
				JOINT Spine1_split
				{
					OFFSET 0.000000 12.508769 -0.658067
					CHANNELS 3 Xrotation Yrotation Zrotation
					JOINT Spine2
					{
						OFFSET 0.000000 12.508769 -0.658067
						CHANNELS 3 Xrotation Yrotation Zrotation
						JOINT Neck_virtual
						{
							OFFSET 0.000000 0.000000 0.000000
							CHANNELS 3 Xrotation Yrotation Zrotation
							JOINT Neck
							{
								OFFSET 0.000000 14.033295 7.520400
								CHANNELS 3 Xrotation Yrotation Zrotation
								JOINT Head
								{
									OFFSET 0.000000 8.198502 5.703100
									CHANNELS 3 Xrotation Yrotation Zrotation
									JOINT HeadTop_End
									{
										OFFSET 0.000000 17.760803 13.332701
										CHANNELS 3 Xrotation Yrotation Zrotation
										End Site
										{
											OFFSET 0 0 0
										}
									}
								}
							}
						}
						JOINT LeftShoulder_virtual
						{
							OFFSET 0.000000 0.000000 0.000000
							CHANNELS 3 Xrotation Yrotation Zrotation
							JOINT LeftShoulder
							{
								OFFSET 6.292450 5.785301 -0.669000
								CHANNELS 3 Xrotation Yrotation Zrotation
								JOINT LeftShoulder_split
								{
									OFFSET 6.292450 5.785301 -0.669000
									CHANNELS 3 Xrotation Yrotation Zrotation
									JOINT LeftArm
									{
										OFFSET 13.907140 -6.093903 1.965100
										CHANNELS 3 Xrotation Yrotation Zrotation
										JOINT LeftForeArm
										{
											OFFSET 34.140198 0.000000 0.000000
											CHANNELS 3 Xrotation Yrotation Zrotation
											JOINT LeftHand
											{
												OFFSET 40.960209 0.000000 0.000000
												CHANNELS 3 Xrotation Yrotation Zrotation
												End Site
												{
													OFFSET 0 0 0
												}
											}
										}
									}
								}
							}
						}
						JOINT RightShoulder_virtual
						{
							OFFSET 0.000000 0.000000 0.000000
							CHANNELS 3 Xrotation Yrotation Zrotation
							JOINT RightShoulder
							{
								OFFSET -6.292450 5.785301 -0.669000
								CHANNELS 3 Xrotation Yrotation Zrotation
								JOINT RightShoulder_split
								{
									OFFSET -6.292450 5.785301 -0.669000
									CHANNELS 3 Xrotation Yrotation Zrotation
									JOINT RightArm
									{
										OFFSET -13.907140 -6.093903 1.965100
										CHANNELS 3 Xrotation Yrotation Zrotation
										JOINT RightForeArm
										{
											OFFSET -34.140198 0.000000 0.000000
											CHANNELS 3 Xrotation Yrotation Zrotation
											JOINT RightHand
											{
												OFFSET -40.960209 0.000000 0.000000
												CHANNELS 3 Xrotation Yrotation Zrotation
												End Site
												{
													OFFSET 0 0 0
												}
											}
										}
									}
								}
							}
						}
					}
				}
			}
		}
	}
}
MOTION
Frames: 7
Frame Time: 0.03333333
-1.783526 106.729797 19.164909 0.000000 0.000000 0.000000 -19.817644 -14.216461 -7.956816 -94.917049 25.266550 30.507819 117.695593 -6.995554 2.825682 -28.442591 -1.370068 31.511962 -26.297943 -2.347785 -3.526577 0.000000 0.000000 0.000000 -19.102011 -19.562901 -8.245164 -117.818550 -24.596143 -11.120082 113.987347 -0.268904 -14.069286 12.352709 -7.972759 12.860851 -29.428925 4.831303 3.392621 0.000000 0.000000 0.000000 -12.734679 -21.632215 -9.297272 3.607914 6.566712 0.988535 15.171286 1.698485 -1.595131 0.091845 -12.426301 1.839094 0.000000 0.000000 0.000000 20.214945 1.071656 -0.945373 -25.570159 -2.076252 -4.310223 -8.914800 12.019946 2.650906 0.000000 0.000000 0.000000 16.225140 1.497873 -1.151512 2.700036 -4.715535 38.826811 0.877714 -2.969413 -0.241366 -47.110229 -27.073596 -6.723419 -18.510571 -36.237657 0.719710 0.000000 0.000000 0.000000 16.257385 0.946021 -1.242081 11.196116 19.692260 -36.237306 5.747535 1.995040 -0.211091 -56.938011 21.903583 12.319713 -15.951164 39.253599 5.445124 0.000000 0.000000 0.000000 
-2.060947 104.754601 19.054016 0.000000 0.000000 0.000000 -21.383157 -14.054593 -7.894561 -96.721469 24.823332 30.421352 118.872571 -7.489924 3.401626 -26.440854 -0.826395 29.542388 -27.600301 -2.501308 -3.136655 0.000000 0.000000 0.000000 -20.829396 -17.913998 -8.123209 -118.535993 -23.372419 -11.252196 115.105695 -0.335115 -13.231481 12.582172 -7.498797 12.363693 -30.564752 4.578000 3.848645 0.000000 0.000000 0.000000 -15.334012 -21.153048 -9.344071 3.818806 6.119851 0.973874 14.996589 1.670965 -1.359402 0.543632 -9.278999 2.655260 0.000000 0.000000 0.000000 19.847266 0.922337 -0.719108 -24.107988 -1.545434 -3.868869 -8.486729 13.158159 2.684749 0.000000 0.000000 0.000000 16.217729 1.377641 -0.778601 2.757345 -4.994237 39.046952 -1.342986 -2.877415 0.806824 -50.499325 -26.319710 -5.686039 -18.596404 -34.101219 1.552539 0.000000 0.000000 0.000000 15.637629 0.625706 -1.169505 11.247027 21.123608 -36.009826 5.759190 -1.644609 0.037850 -59.266965 19.583156 12.940669 -18.308717 42.144583 6.986877 0.000000 0.000000 0.000000 
-2.359289 102.912048 19.485199 0.000000 0.000000 0.000000 -23.018670 -13.638573 -7.602451 -98.016336 23.787978 30.258213 119.977860 -8.120695 4.797004 -21.769715 -0.656497 25.914988 -30.750885 -2.773283 -2.781541 0.000000 0.000000 0.000000 -23.246730 -15.969647 -7.831692 -118.216272 -21.271301 -11.961994 116.628321 -0.490172 -12.053722 12.759084 -6.726697 10.396778 -31.393756 4.402223 5.056128 0.000000 0.000000 0.000000 -18.166498 -20.399212 -9.378506 4.039078 5.186945 0.734167 14.276685 1.425497 -0.871305 4.376711 -6.401035 3.082110 0.000000 0.000000 0.000000 18.582619 0.737090 -0.341091 -22.649360 -1.091709 -2.801236 -8.124889 13.703553 2.159989 0.000000 0.000000 0.000000 15.106451 1.111997 -0.230004 2.954542 -5.651059 39.713466 -1.873902 -3.280639 1.629002 -54.970206 -24.229551 -7.217440 -18.458868 -34.370369 2.290285 0.000000 0.000000 0.000000 14.112714 0.276344 -0.808331 11.023246 22.376748 -35.584770 5.566375 -4.802890 0.783052 -59.606378 18.039774 12.631571 -21.285118 44.987482 8.113601 0.000000 0.000000 0.000000 
-2.267673 102.110023 19.791924 0.000000 0.000000 0.000000 -24.838832 -12.960303 -7.061180 -97.871932 22.440931 30.285171 119.537750 -8.653762 6.181966 -16.370690 -0.986144 21.845554 -34.611079 -3.014795 -2.788035 0.000000 0.000000 0.000000 -25.964834 -14.048668 -7.356855 -116.259259 -18.784613 -12.944919 117.470484 -0.526583 -10.986325 12.934293 -5.536443 7.667516 -32.744787 4.304737 6.748942 0.000000 0.000000 0.000000 -20.828913 -19.744031 -9.422666 4.486306 4.038157 0.448803 13.467752 1.085351 -0.300560 7.016784 -2.088609 2.126905 0.000000 0.000000 0.000000 16.954925 0.576646 0.074616 -21.737634 -1.018256 -1.255357 -7.872182 13.643206 1.243450 0.000000 0.000000 0.000000 13.733052 0.732090 0.368980 3.185427 -6.404018 40.238820 -1.139405 -3.436985 2.663328 -59.058733 -21.186854 -10.866506 -18.199340 -35.974494 2.934393 0.000000 0.000000 0.000000 12.436065 0.009578 -0.229480 10.713459 23.387804 -35.146787 4.979171 -5.903960 1.178438 -58.038699 17.517361 12.653328 -23.848657 47.843378 8.355953 0.000000 0.000000 0.000000 
-1.903092 102.603760 19.350159 0.000000 0.000000 0.000000 -27.432089 -12.522945 -6.566046 -95.403966 20.587963 29.903456 117.139766 -9.408910 7.431522 -10.947723 -1.444482 17.266848 -38.660377 -3.135534 -3.012281 0.000000 0.000000 0.000000 -29.113114 -12.331705 -6.830086 -112.247711 -16.457428 -13.959668 117.376760 -0.335947 -10.091242 13.836935 -3.991092 4.834145 -35.087611 4.223690 8.721796 0.000000 0.000000 0.000000 -23.403049 -19.184101 -9.380570 5.345156 3.019496 0.255010 13.095892 0.670307 0.233995 8.086875 1.543484 1.178472 0.000000 0.000000 0.000000 15.822041 0.430914 0.425708 -21.665558 -1.634938 0.444830 -7.319036 13.147380 0.221466 0.000000 0.000000 0.000000 12.879692 0.363319 0.864536 3.306639 -6.909591 40.181030 0.669711 -2.978687 4.005491 -62.500568 -17.617529 -15.927909 -18.138623 -37.181999 3.575283 0.000000 0.000000 0.000000 11.477691 -0.135520 0.438699 10.269528 24.000600 -34.942903 4.439065 -4.814068 1.307729 -55.421036 17.884584 13.552631 -24.914402 50.099864 7.085464 0.000000 0.000000 0.000000 
-1.363347 104.467705 17.915962 0.000000 0.000000 0.000000 -30.881362 -12.671222 -6.372067 -90.754636 18.323610 29.252105 112.960325 -10.561184 8.662575 -5.486334 -1.787188 12.162541 -42.928463 -3.115914 -3.308131 0.000000 0.000000 0.000000 -32.359739 -11.342905 -6.401564 -106.531260 -14.731926 -15.220484 116.240749 0.060210 -9.393913 16.166904 -2.459721 2.739236 -39.152260 3.960632 10.696187 0.000000 0.000000 0.000000 -26.434476 -18.714431 -9.197885 6.735717 2.505054 0.236763 13.726272 0.306624 0.529676 7.555532 3.332369 0.169763 0.000000 0.000000 0.000000 16.120035 0.276751 0.552764 -22.144730 -2.898036 1.886102 -5.984045 13.118412 -0.543212 0.000000 0.000000 0.000000 13.382117 0.044474 1.111860 3.193349 -6.887360 39.062036 2.236371 -1.152057 4.942923 -65.211422 -14.491505 -21.233234 -18.453163 -37.361203 4.342677 0.000000 0.000000 0.000000 12.025926 -0.215631 1.002103 9.640517 24.378378 -35.035520 3.471326 -2.402171 1.066381 -52.997538 18.779549 15.491062 -23.619284 51.097052 3.820798 0.000000 0.000000 0.000000 
-0.889164 107.378319 15.537277 0.000000 0.000000 0.000000 -34.586387 -12.829627 -6.374329 -83.949630 16.700463 28.573005 107.221081 -11.601891 9.117428 -0.906501 -1.486016 8.861487 -47.728716 -2.998220 -3.673835 0.000000 0.000000 0.000000 -35.368550 -10.992494 -6.141971 -99.569220 -14.095748 -16.741996 113.519902 0.736444 -8.750862 19.625128 -1.125420 1.975982 -44.922643 3.292889 12.386422 0.000000 0.000000 0.000000 -30.070649 -18.147084 -8.926887 8.384833 2.600429 0.499654 15.550299 0.088202 0.557323 4.300471 4.034976 -0.833130 0.000000 0.000000 0.000000 18.049868 0.147578 0.339207 -22.381137 -4.321854 2.735534 -3.623650 13.215101 -0.752419 0.000000 0.000000 0.000000 15.715589 -0.205510 1.006729 3.045769 -6.629505 36.674670 3.125298 1.137957 5.704618 -68.095490 -12.342067 -26.045045 -18.598672 -36.474269 5.660300 0.000000 0.000000 0.000000 14.453609 -0.114802 1.236761 9.094921 24.866613 -34.941639 2.287562 0.308118 0.915238 -51.927319 19.115227 17.890675 -20.197901 49.926938 -1.034915 0.000000 0.000000 0.000000 
